HIERARCHY
ROOT pelvis
{
  OFFSET 0 100 0
  CHANNELS 6 Xposition Yposition Zposition Zrotation Xrotation Yrotation
  JOINT pelvis_right_femur
  {
    OFFSET -10.78128 -3.44521 -0.5502486
    CHANNELS 3 Zrotation Xrotation Yrotation
    JOINT right_femur_tibia
    {
      OFFSET -0.8047443 -44.0398 -0.1307829
      CHANNELS 3 Zrotation Xrotation Yrotation
      JOINT right_tibia_foot
      {
        OFFSET 3.006224 -47.83518 -5
        CHANNELS 3 Zrotation Xrotation Yrotation
        End Site
        {
          OFFSET 0 -5 15
        }
      }
    }
  }
  JOINT pelvis_left_femur
  {
    OFFSET 10.78128 -3.44521 -0.5502486
    CHANNELS 3 Zrotation Xrotation Yrotation
    JOINT left_femur_tibia
    {
      OFFSET 0.8047443 -44.0398 -0.1307829
      CHANNELS 3 Zrotation Xrotation Yrotation
      JOINT left_tibia_foot
      {
        OFFSET -4.370144 -48.10324 -4.275266
        CHANNELS 3 Zrotation Xrotation Yrotation
        End Site
        {
          OFFSET 0 -5 15
        }
      }
    }
  }
  JOINT pelvis_spine1
  {
    OFFSET 0 6.468898 -3.129235
    CHANNELS 3 Zrotation Xrotation Yrotation
    JOINT spine1
    {
      OFFSET 0 23.15396 4.99043
      CHANNELS 3 Zrotation Xrotation Yrotation
      JOINT spine2
      {
        OFFSET 0 20.79997 -5.064912
        CHANNELS 3 Zrotation Xrotation Yrotation
        JOINT neck
        {
          OFFSET 0 14.38658 9.616178
          CHANNELS 3 Zrotation Xrotation Yrotation
          End Site
          {
            OFFSET 0 20 0
          }
        }
      }
      JOINT right_manubrium
      {
        OFFSET -5.722621 16.35077 3.967754
        CHANNELS 3 Zrotation Xrotation Yrotation
        JOINT right_clavicle
        {
          OFFSET -13.16364 1.694482 -4.693211
          CHANNELS 3 Zrotation Xrotation Yrotation
          JOINT right_humerus
          {
            OFFSET -28.5034 -0.3100689 -2.792744
            CHANNELS 3 Zrotation Xrotation Yrotation
            JOINT right_radius
            {
              OFFSET -25.15693 0.02248979 -1.271978
              CHANNELS 3 Zrotation Xrotation Yrotation
              End Site
              {
                OFFSET -15 0 0
              }
            }
          }
        }
      }
      JOINT left_manubrium
      {
        OFFSET 5.722621 16.35077 3.967754
        CHANNELS 3 Zrotation Xrotation Yrotation
        JOINT left_clavicle
        {
          OFFSET 13.16364 1.694482 -4.693211
          CHANNELS 3 Zrotation Xrotation Yrotation
          JOINT left_humerus
          {
            OFFSET 29.39168 -1.063119 -2.237045
            CHANNELS 3 Zrotation Xrotation Yrotation
            JOINT left_radius
            {
              OFFSET 24.59957 -0.9528479 0.9047498
              CHANNELS 3 Zrotation Xrotation Yrotation
              End Site
              {
                OFFSET 15 -0 -0
              }
            }
          }
        }
      }
    }
  }
}
MOTION
Frames: 19
Frame Time: 0.0416666666667
34.21094 100.5712 252.0944 0.03931432 -2.638572 1.06919 5.145909 10.39106 8.011019 -0 24.19598 -0 -1.370819 -14.8595 -9.111721 2.895766 -29.7204 -1.106476 -0 22.5901 -0 -7.545756 -8.038695 18.32696 0.9990663 -2.371551 9.544648 -2.209959 11.80296 -2.22554 2.673728 18.05083 3.9941 3.063138 -16.10256 4.546863 2.709626 -23.57209 12.19849 78.79432 19.26441 -4.683116 -0 0 26.56173 -24.45389 8.848487 14.82699 2.776467 -16.7866 -2.577781 -90.65971 21.55039 25.90263 0 0 -12.91773 -3.014679 4.840457 15.91389
35.5059 99.91404 259.2459 0.02937984 -2.783317 0.5563936 4.241694 12.52818 7.741316 -0 29.57421 -0 0.5080838 -13.1113 -8.331701 1.486452 -29.50115 -2.477521 -0 22.9565 -0 -7.3796 -7.283006 18.07828 0.7681291 -3.066347 9.569102 -2.301474 11.66246 -2.067389 2.976586 18.12644 3.936824 3.082948 -16.26541 4.823935 2.415183 -22.88776 11.72385 79.49569 18.75216 -5.006704 -0 0 26.91495 -24.55497 8.564686 14.81807 2.764564 -15.98955 -2.467042 -90.88064 21.815 26.10258 0 0 -12.12575 -3.424213 4.592887 16.74906
36.70465 100.0276 266.6166 0.03570466 -2.702687 0.8255993 4.065585 11.61126 6.94687 -0 36.57248 -0 1.99595 -10.25749 -8.439252 -0.07299652 -26.84864 -3.669466 -0 24.66608 -0 -6.949904 -7.684612 17.79329 0.3620696 -4.121511 9.453512 -2.277428 11.56625 -2.035629 3.294019 18.42556 3.848163 3.127688 -16.38539 5.07231 2.459282 -22.09334 11.25675 80.30584 18.48676 -5.946963 -0 0 26.13829 -24.41831 8.417782 14.55264 2.770705 -15.471 -2.367852 -90.55463 22.18296 25.71779 0 0 -11.72608 -3.667081 4.422653 17.26515
37.99268 100.913 273.7154 0.04944343 -2.465039 1.644365 2.914625 8.057703 6.432987 -0 44.17531 -0 2.04358 -10.2518 -8.938855 -1.247998 -23.67928 -4.656793 -0 25.81526 -0 -6.196704 -9.127099 17.22424 0.08301584 -5.276927 8.955228 -2.276584 11.65671 -2.210278 3.539241 18.92893 3.774104 3.122547 -16.5908 5.317795 2.950255 -21.0496 10.93107 81.44982 18.49155 -7.513801 -0 0 24.26315 -23.88828 8.382493 13.92958 2.496128 -15.42819 -2.391284 -89.66668 22.66257 24.59826 0 0 -11.61712 -3.725476 4.333226 17.4983
39.24129 101.9159 280.2962 0.06288797 -2.150658 2.72579 3.670567 2.751359 5.540002 -0 51.28776 -0 1.962638 -9.971073 -9.340146 -2.183577 -19.59314 -5.211129 -0 25.55163 -0 -5.414847 -11.06405 16.54114 0.04248713 -6.092861 8.128796 -2.314796 11.70697 -2.518158 3.483291 19.40852 3.906611 2.934272 -16.77828 5.616284 3.594739 -20.10723 10.88585 82.57377 18.68342 -9.110315 -0 0 22.0686 -23.11376 8.391229 13.18321 2.09181 -15.7979 -2.671269 -88.35799 23.2372 22.63846 0 0 -11.81169 -3.665573 4.320582 17.55978
40.38181 103.2685 286.3592 0.06824559 -1.895555 3.601255 3.4205 -4.541125 4.830041 -0 54.45802 -0 2.000917 -9.90945 -10.41371 -2.701426 -15.03679 -5.431181 -0 24.1345 -0 -4.926729 -12.68072 15.79205 0.07589509 -6.703979 7.052649 -2.219093 11.83499 -3.012629 3.195672 20.06345 4.248545 2.611568 -16.74643 6.015623 4.105573 -19.37048 10.92489 83.66672 18.9694 -10.63148 -0 0 19.95486 -22.25056 8.414469 12.42587 1.766479 -16.31786 -3.218589 -86.91241 23.8516 20.00544 0 0 -12.26485 -3.558259 4.379161 17.52756
41.38665 104.4265 291.7861 0.06981561 -1.610506 4.575804 2.872324 -9.684766 4.188863 -0 55.78974 -0 2.716797 -8.318682 -11.27828 -2.995373 -10.70377 -5.724207 -0 22.03828 -0 -4.691663 -13.95542 14.89338 -0.1598678 -6.775689 5.756842 -1.930464 11.66922 -4.021857 2.971652 20.64006 4.596958 2.318598 -16.57559 6.469265 4.132983 -18.71908 10.76562 84.72833 19.23491 -12.0783 -0 0 18.23358 -21.38286 8.378827 11.70775 1.768189 -17.17484 -4.155543 -85.43935 24.49096 16.75907 0 0 -13.03346 -3.464095 4.475759 17.44685
42.40627 105.2653 297.2361 0.06479955 -1.172943 6.078365 2.616384 -16.41069 3.865364 -0 52.22442 -0 2.784075 -7.403268 -12.0691 -3.175843 -6.386985 -6.111189 -0 19.66858 -0 -4.58007 -15.17659 13.77926 -0.3735139 -7.004531 4.623423 -1.423835 11.42811 -5.220543 2.921126 21.11746 4.827483 2.125025 -16.39909 6.898115 3.702616 -17.943 10.15247 85.58371 19.39207 -13.73645 -0 0 16.72483 -20.57159 8.253378 11.01896 2.022146 -17.90758 -4.780192 -84.02977 24.97156 13.38641 0 0 -14.50477 -3.265996 4.668756 17.05173
43.43258 105.3445 302.6444 0.04792494 -0.7010751 7.703128 2.537016 -22.63945 3.286978 -0 45.09045 -0 2.597342 -6.466824 -13.22792 -3.205501 -2.408072 -6.364559 -0 17.62292 -0 -4.49647 -16.62795 12.63066 -0.5791588 -7.166876 3.672498 -0.8315413 11.02135 -6.404493 3.0155 21.42678 4.892254 2.011946 -16.2966 7.22196 3.014558 -17.14692 9.390718 86.16866 19.49416 -15.40136 -0 0 15.28571 -19.77137 8.066406 10.26882 2.491095 -18.73403 -5.163904 -82.50761 25.31233 9.869793 0 0 -16.62839 -2.92333 4.983863 16.34145
44.3399 104.7563 308.34 0.01390902 -0.1666153 9.551635 1.655883 -28.4318 3.660948 -0 36.16323 -0 2.252616 -5.232051 -13.76795 -3.034463 1.224073 -6.566209 -0 16.3313 -0 -4.41733 -18.34221 11.55944 -0.9324188 -7.431289 2.725065 -0.2072789 10.65662 -7.591146 3.182456 21.51131 4.805662 1.938938 -16.37432 7.401207 2.447444 -16.05983 8.53366 86.88634 19.56477 -17.27739 -0 0 13.48658 -18.80013 7.88131 9.249719 3.091879 -19.57543 -5.344671 -80.90603 25.52163 6.502378 0 0 -19.00871 -2.459942 5.368391 15.4435
45.05887 103.6222 313.9646 -0.03006202 0.3099112 11.20796 -0.154309 -30.52301 3.868231 -0 26.82609 -0 1.325889 -5.239821 -13.52914 -2.668737 4.377744 -6.767646 -0 15.99742 -0 -4.40196 -20.16485 10.70621 -1.200323 -7.252197 2.047687 0.2884484 10.30011 -8.416701 3.362872 21.56405 4.57112 1.88447 -16.52721 7.39 2.081576 -15.19441 7.949093 87.60618 19.69655 -18.7305 -0 0 11.63423 -17.66894 7.750403 8.097015 3.753547 -20.5435 -5.253689 -79.34068 25.5581 3.384874 0 0 -21.43568 -1.884553 5.778319 14.4545
45.77322 101.9747 320.0304 -0.05523585 0.5362288 11.99841 -0.9131371 -32.5635 3.403637 -0 17.71536 -0 0.01782124 -6.685143 -13.39764 -2.253164 7.546097 -6.77985 -0 16.78746 -0 -4.544228 -21.7004 10.2397 -1.241753 -7.375753 1.842491 0.5585834 9.75318 -8.608579 3.546504 21.3215 4.503921 1.815377 -17.10547 7.614801 1.923368 -14.13588 7.684273 88.46793 19.8749 -20.06799 -0 0 9.500591 -16.2853 7.707161 6.746415 4.186425 -21.38729 -4.987075 -78.07233 25.46125 0.9951678 0 0 -23.41842 -1.262757 6.164587 13.48375
46.34464 101.1383 325.6975 -0.05463923 0.5339946 11.9916 0.181123 -33.38671 2.893834 -0 15.16368 -0 -1.73853 -6.940531 -13.65147 -1.982617 9.938708 -6.783472 -0 18.89985 -0 -5.026721 -22.06966 10.25002 -0.9452729 -6.825464 2.098285 0.815653 9.531626 -8.193204 3.49695 21.36479 4.483201 1.642094 -17.71156 7.709375 2.559832 -13.82341 7.894247 89.05247 20.19233 -20.64206 -0 0 7.410511 -14.71481 7.734124 5.257853 4.007064 -22.04721 -4.656189 -77.05834 25.30012 -0.9209689 0 0 -24.65894 -0.6969389 6.500021 12.6569
46.76134 100.34 332.0616 -0.05652635 0.5515247 12.0534 1.372844 -33.24875 3.268381 -0 16.81075 -0 -3.167937 -6.308969 -13.25971 -1.577531 11.64198 -6.879286 -0 22.59319 -0 -5.801135 -21.05301 10.69028 -0.7536384 -6.791561 2.23101 0.8640084 9.467241 -7.875458 3.452821 21.50213 4.4484 1.508196 -18.25454 7.761819 2.955764 -13.26658 7.812781 89.68504 20.43821 -21.12863 -0 0 5.659184 -13.50352 7.706383 4.218786 3.888083 -22.39976 -4.066137 -76.58269 25.22217 -1.740228 0 0 -25.02669 -0.2574733 6.778964 12.11083
47.3309 99.90921 338.8761 -0.05485418 0.5382661 12.007 2.830771 -31.01399 4.391246 -0 19.67206 -0 -4.454373 -5.581376 -12.25564 -1.428536 12.13064 -6.952662 -0 28.55741 -0 -6.718085 -18.50363 11.85428 -0.4714975 -7.266471 2.118315 0.830341 9.426302 -7.876107 3.321212 21.66951 4.47786 1.362399 -18.73368 7.79422 3.012544 -12.98654 7.539596 90.13567 20.6847 -21.05147 -0 0 4.632019 -12.69832 7.629961 3.56555 3.857487 -21.91677 -3.545643 -76.96748 25.35852 -1.221682 0 0 -24.38079 -0.04693142 6.993776 11.93664
47.90001 100.1784 346.5227 -0.05051291 0.5007449 11.87564 3.144746 -29.47389 6.620381 -0 25.0239 -0 -6.063965 -5.72334 -11.25911 -1.428057 10.72535 -6.800944 -0 36.76409 -0 -7.49624 -15.0952 13.91511 -0.3022989 -8.513302 2.162387 0.8513225 9.682078 -7.922486 3.20389 22.03679 4.483519 1.270758 -19.13305 7.774339 2.97376 -12.66213 7.216228 90.36544 20.92072 -20.68719 -0 0 4.098098 -12.36621 7.494566 3.272084 3.736358 -20.68876 -3.090427 -78.27223 25.738 0.5863719 0 0 -22.65794 -0.1493063 7.147404 12.16951
48.35332 100.9468 353.8767 -0.007152188 0.08115396 10.4122 4.632781 -26.38501 8.313661 -0 28.4889 -0 -7.462447 -7.166876 -10.73862 -1.197623 6.223997 -6.730534 -0 46.17887 -0 -7.182894 -12.90631 16.85029 -0.1233896 -9.200085 2.964324 0.6655868 10.19429 -7.363711 3.246368 22.77084 4.309984 1.309409 -19.41904 7.629647 2.887872 -12.3569 7.317691 90.15625 21.23666 -19.89409 -0 0 3.860716 -12.49784 7.317562 3.280079 3.376542 -19.88124 -2.574144 -79.702 26.1347 2.627196 0 0 -20.39525 -0.4420646 7.261103 12.58936
48.87395 101.6394 360.5217 0.008126829 -0.09797471 9.789291 5.480602 -22.76724 9.470772 -0 30.00982 -0 -8.48587 -8.950513 -10.57137 -2.03904 0.6383466 -5.70618 -0 54.47971 -0 -7.073249 -10.7811 19.76307 0.03250214 -9.998866 3.81047 0.6493497 9.967384 -6.845504 3.64421 23.20592 4.088337 1.541782 -20.11295 7.737574 2.871575 -12.50954 7.750939 89.7235 21.5145 -18.48458 -0 0 4.116419 -12.93455 7.11621 3.695046 2.75406 -18.98936 -2.640829 -81.60196 26.60286 4.985574 0 0 -17.74665 -0.9716271 7.365606 13.19515
49.30428 103.005 366.1283 0.0208941 -0.2670082 9.20311 5.817651 -18.56268 9.820648 -0 29.22478 -0 -9.015262 -10.34785 -10.27572 -1.851739 -6.386368 -5.080143 -0 58.99315 -0 -6.38484 -9.651733 22.06012 0.1104683 -9.559959 4.730262 0.6103771 9.781997 -6.061645 3.882809 23.77818 3.896657 1.697631 -20.57419 7.740775 2.958092 -13.45148 8.557056 88.79362 21.80946 -16.12327 -0 0 4.955078 -13.72201 6.865673 4.57824 2.322434 -18.51786 -2.853383 -83.56037 26.95151 7.265268 0 0 -15.27516 -1.519748 7.484849 13.78856
